<svg id="Layer_1" data-name="Layer 1" xmlns="http://www.w3.org/2000/svg" viewBox="0 0 22 21.89"><defs><style>.cls-1{fill:#fff;}</style></defs><g id="_71bZAb" data-name="71bZAb"><path d="M11.94,21H3.27A1.23,1.23,0,0,1,2,20a1,1,0,0,1,0-.24V8.77a.55.55,0,0,1,.28-.48c.41-.28.8-.59,1.19-.89l.94-.71a.25.25,0,0,0,.11-.22v-3c0-.38.14-.52.52-.52H9.12a.44.44,0,0,0,.27-.09c.76-.56,1.51-1.14,2.26-1.71a.41.41,0,0,1,.59,0L14.52,2.9a.41.41,0,0,0,.24.08h4.11c.36,0,.51.14.51.51v3a.27.27,0,0,0,.11.25c.67.5,1.32,1,2,1.51a.84.84,0,0,1,.4.81q0,5.31,0,10.64A1.26,1.26,0,0,1,20.6,21Zm0-5.56.69-.52,5.73-4.36a.38.38,0,0,0,.18-.35V4c0-.05,0-.1,0-.16H5.35s0,.1,0,.16c0,2.06,0,4.13,0,6.19a.36.36,0,0,0,.15.31l3.1,2.35Zm-1.71-.25-6.54,5H20.19l-6.53-5c-.41.31-.81.6-1.2.91s-.55.38-1,0Zm10.81,4.58V9.51l-6.71,5.11Zm-11.5-5.1-6.7-5.1V19.71ZM3.14,8.7l1.37,1V7.66Zm16.25,1,1.36-1-1.36-1ZM13.24,3c-.43-.33-.83-.64-1.23-.93a.23.23,0,0,0-.16,0l-1.1.84L10.68,3Z" transform="translate(-2 -1.06)"/></g><g id="_1UDyFh.tif" data-name="1UDyFh.tif"><path d="M14.94,20.08c.16-.21.31-.43.48-.64a6.33,6.33,0,0,1,2.31-1.79,4.33,4.33,0,0,1,2-.36,4.57,4.57,0,0,1,2.25.78,7,7,0,0,1,2,2l0,.05s0,0,0,0a6.89,6.89,0,0,1-.75,1,6.17,6.17,0,0,1-2.13,1.54,4.7,4.7,0,0,1-1.28.31h-.73a4.23,4.23,0,0,1-1.48-.4,6.36,6.36,0,0,1-2.24-1.81c-.16-.19-.3-.4-.45-.61Zm4.55,2.3a4.45,4.45,0,0,0,1.23-.2,5.13,5.13,0,0,0,2.52-2c.05-.07,0-.11,0-.18a5.19,5.19,0,0,0-1.74-1.62,3.88,3.88,0,0,0-3.35-.31,5,5,0,0,0-2.46,2,.1.1,0,0,0,0,.13,5.33,5.33,0,0,0,1.14,1.23A4.24,4.24,0,0,0,19.49,22.38Z" transform="translate(-2 -1.06)"/><path class="cls-1" d="M19.49,22.38a4.24,4.24,0,0,1-2.66-1,5.33,5.33,0,0,1-1.14-1.23.1.1,0,0,1,0-.13,5,5,0,0,1,2.46-2,3.88,3.88,0,0,1,3.35.31A5.19,5.19,0,0,1,23.23,20c.05.07.06.11,0,.18a5.13,5.13,0,0,1-2.52,2A4.45,4.45,0,0,1,19.49,22.38Zm0-4a1.7,1.7,0,1,0,1.7,1.7A1.69,1.69,0,0,0,19.47,18.42Z" transform="translate(-2 -1.06)"/><path d="M19.47,18.42a1.7,1.7,0,1,1-1.7,1.69A1.69,1.69,0,0,1,19.47,18.42Z" transform="translate(-2 -1.06)"/></g></svg>